Coordinates
version=1
nRows=13
nColumns=40
inDegrees=yes

Units are S.I. units (second, meters, Newtons, ...)
If the header above contains a line with 'inDegrees', this indicates whether rotational values are in degrees (yes) or radians (no).

endheader
time	pelvis_tilt	pelvis_list	pelvis_rotation	pelvis_tx	pelvis_ty	pelvis_tz	hip_flexion_r	hip_adduction_r	hip_rotation_r	knee_angle_r	knee_angle_r_beta	ankle_angle_r	subtalar_angle_r	mtp_angle_r	hip_flexion_l	hip_adduction_l	hip_rotation_l	knee_angle_l	knee_angle_l_beta	ankle_angle_l	subtalar_angle_l	mtp_angle_l	lumbar_extension	lumbar_bending	lumbar_rotation	arm_flex_r	arm_add_r	arm_rot_r	elbow_flex_r	pro_sup_r	wrist_flex_r	wrist_dev_r	arm_flex_l	arm_add_l	arm_rot_l	elbow_flex_l	pro_sup_l	wrist_flex_l	wrist_dev_l
      1.24500000	      2.29561685	     -4.05535956	      0.59319838	      0.18547420	      0.44040379	     -1.22205782	     87.21575405	    -49.34044082	     23.51731345	    123.13141359	      2.14904858	     35.04181058	     22.38615047	      0.00000000	     99.05254711	    -47.08852601	     33.15125964	    126.39768045	      2.20605569	     36.60892461	     26.28170431	      0.00000000	    -42.31401729	      4.68577997	     -4.34935559	     44.99992261	    -15.00000002	     44.99992261	     75.00017585	     45.00000026	      0.00000000	      0.00000000	     44.99992261	    -15.00000002	     44.99992261	     75.00017585	     45.00000026	      0.00000000	      0.00000000
      1.25000000	      2.42873817	     -4.13260749	      0.57257110	      0.18559026	      0.43898555	     -1.22237982	     87.28000012	    -49.34575791	     23.71998497	    123.28813528	      2.15178389	     35.09863042	     22.51537167	      0.00000000	     99.23975026	    -47.04754914	     33.52825335	    126.62972078	      2.21010556	     36.72346577	     26.32854461	      0.00000000	    -42.46484236	      4.73706011	     -4.44912676	     44.99992280	    -15.00000001	     44.99992280	     75.00017585	     45.00000026	      0.00000000	      0.00000000	     44.99992280	    -15.00000001	     44.99992280	     75.00017585	     45.00000026	      0.00000000	      0.00000000
      1.25500000	      2.65130333	     -4.08942036	      0.55320604	      0.18567033	      0.43778145	     -1.22259660	     87.39995815	    -49.36395341	     24.12735501	    123.44170447	      2.15446418	     35.11591414	     22.68122760	      0.00000000	     99.14170181	    -47.04827636	     33.69096492	    126.84735463	      2.21390399	     36.84266099	     26.39184007	      0.00000000	    -42.71117300	      4.64463465	     -4.49091380	     44.99992297	    -15.00000001	     44.99992297	     75.00017585	     45.00000026	      0.00000000	      0.00000000	     44.99992297	    -15.00000001	     44.99992297	     75.00017585	     45.00000026	      0.00000000	      0.00000000
      1.26000000	      2.89570798	     -4.02500781	      0.50546255	      0.18574555	      0.43669171	     -1.22272871	     87.52188552	    -49.36661272	     24.55691098	    123.58466589	      2.15695932	     35.12836998	     22.92703901	      0.00000000	     98.98874400	    -47.10829203	     33.80681964	    127.04681771	      2.21738527	     36.96601161	     26.47512218	      0.00000000	    -42.99484334	      4.54303808	     -4.49128399	     44.99992312	    -15.00000001	     44.99992312	     75.00017585	     45.00000026	      0.00000000	      0.00000000	     44.99992312	    -15.00000001	     44.99992312	     75.00017585	     45.00000026	      0.00000000	      0.00000000
      1.26500000	      3.14160068	     -4.15151825	      0.49732695	      0.18582689	      0.43570481	     -1.22312300	     87.30892938	    -49.38675436	     24.59765238	    123.69601230	      2.15890269	     35.18141774	     23.06895559	      0.00000000	     99.07579085	    -47.09034056	     34.22838811	    127.25024662	      2.22093578	     37.06714130	     26.57304430	      0.00000000	    -43.30623797	      4.64788221	     -4.52215718	     44.99992325	    -15.00000000	     44.99992325	     75.00017585	     45.00000026	      0.00000000	      0.00000000	     44.99992325	    -15.00000000	     44.99992325	     75.00017585	     45.00000026	      0.00000000	      0.00000000
      1.27000000	      3.37289686	     -4.18033387	      0.46733856	      0.18591939	      0.43465780	     -1.22338758	     87.29044627	    -49.39627742	     24.84227165	    123.82611566	      2.16117342	     35.19880992	     23.25433056	      0.00000000	     99.04877390	    -47.11332400	     34.48968351	    127.45045307	      2.22443004	     37.16997455	     26.66844519	      0.00000000	    -43.57125665	      4.64473806	     -4.49406733	     44.99992336	    -15.00000000	     44.99992336	     75.00017585	     45.00000026	      0.00000000	      0.00000000	     44.99992336	    -15.00000000	     44.99992336	     75.00017585	     45.00000026	      0.00000000	      0.00000000
      1.27500000	      3.67644369	     -4.20946767	      0.43061259	      0.18595463	      0.43389319	     -1.22364618	     87.14746935	    -49.40074112	     25.04253367	    123.91791910	      2.16277569	     35.18737457	     23.52228433	      0.00000000	     98.91048921	    -47.17116238	     34.71602800	    127.62774347	      2.22752434	     37.30152048	     26.73786411	      0.00000000	    -43.94669879	      4.65565830	     -4.46203429	     44.99992346	    -15.00000000	     44.99992346	     75.00017585	     45.00000026	      0.00000000	      0.00000000	     44.99992346	    -15.00000000	     44.99992346	     75.00017585	     45.00000026	      0.00000000	      0.00000000
      1.28000000	      3.85468078	     -4.14437101	      0.40057987	      0.18603864	      0.43275183	     -1.22382417	     87.33675672	    -49.40634968	     25.47808114	    124.06204264	      2.16529112	     35.23339460	     23.65912045	      0.00000000	     98.82157637	    -47.18769523	     34.81839918	    127.82613430	      2.23098691	     37.38363690	     26.79498448	      0.00000000	    -44.12955254	      4.60328437	     -4.45533755	     44.99992355	    -15.00000000	     44.99992355	     75.00017585	     45.00000026	      0.00000000	      0.00000000	     44.99992355	    -15.00000000	     44.99992355	     75.00017585	     45.00000026	      0.00000000	      0.00000000
      1.28500000	      4.08877179	     -4.18446158	      0.36473915	      0.18609648	      0.43180715	     -1.22407894	     87.28577305	    -49.41007938	     25.68879995	    124.17580355	      2.16727662	     35.23814648	     23.89847478	      0.00000000	     98.79631823	    -47.21312357	     35.09077820	    128.00850792	      2.23416993	     37.49204706	     26.88029075	      0.00000000	    -44.40487092	      4.62683871	     -4.43791411	     44.99992363	    -15.00000000	     44.99992363	     75.00017585	     45.00000026	      0.00000000	      0.00000000	     44.99992363	    -15.00000000	     44.99992363	     75.00017585	     45.00000026	      0.00000000	      0.00000000
      1.29000000	      4.30697857	     -4.20768516	      0.35243201	      0.18614658	      0.43094474	     -1.22439050	     87.24040316	    -49.41627691	     25.90335473	    124.27562920	      2.16901891	     35.28011906	     23.97884325	      0.00000000	     98.73413660	    -47.21583362	     35.28913166	    128.18869147	      2.23731473	     37.56877605	     26.93891684	      0.00000000	    -44.65612947	      4.64077507	     -4.44291026	     44.99992370	    -15.00000000	     44.99992370	     75.00017585	     45.00000026	      0.00000000	      0.00000000	     44.99992370	    -15.00000000	     44.99992370	     75.00017585	     45.00000026	      0.00000000	      0.00000000
      1.29500000	      4.51967758	     -4.11177085	      0.31520799	      0.18619813	      0.43003359	     -1.22453818	     87.40866509	    -49.42183242	     26.35417574	    124.38816987	      2.17098311	     35.26138929	     24.17499560	      0.00000000	     98.53456756	    -47.26285912	     35.31095048	    128.36424690	      2.24037875	     37.66493656	     26.99607584	      0.00000000	    -44.89566251	      4.52516020	     -4.47445437	     44.99992376	    -14.99999999	     44.99992376	     75.00017585	     45.00000026	      0.00000000	      0.00000000	     44.99992376	    -14.99999999	     44.99992376	     75.00017585	     45.00000026	      0.00000000	      0.00000000
      1.30000000	      5.47112075	     -4.43566241	      0.35978994	      0.18589906	      0.43163942	     -1.22519196	     85.65140388	    -49.47731939	     25.60247065	    124.27077609	      2.16893421	     35.57778496	     24.22055173	      0.00000000	     97.74756143	    -47.42083722	     35.74609766	    128.38016702	      2.24065661	     37.76922967	     27.47272538	      0.00000000	    -46.17964263	      4.77727636	     -4.51777252	     44.99992381	    -14.99999999	     44.99992381	     75.00017585	     45.00000026	      0.00000000	      0.00000000	     44.99992381	    -14.99999999	     44.99992381	     75.00017585	     45.00000026	      0.00000000	      0.00000000
      1.30500000	      4.94742975	     -4.12539935	      0.27193840	      0.18628958	      0.42846603	     -1.22503889	     87.35599706	    -49.43152379	     26.82202227	    124.57789996	      2.17429453	     35.28344349	     24.49397233	      0.00000000	     98.35432729	    -47.29070476	     35.64595248	    128.69202804	      2.24609961	     37.83077084	     27.08844159	      0.00000000	    -45.38035827	      4.49403744	     -4.52363021	     44.99992387	    -14.99999999	     44.99992387	     75.00017585	     45.00000026	      0.00000000	      0.00000000	     44.99992387	    -14.99999999	     44.99992387	     75.00017585	     45.00000026	      0.00000000	      0.00000000
